<svg width="659" height="825" viewBox="0 0 659 825" fill="none" xmlns="http://www.w3.org/2000/svg">
<rect width="659" height="825" rx="29" fill="#E2DCFF"/>
<rect width="659" height="825" rx="29" fill="#E2DCFF"/>
<rect width="659" height="825" rx="29" fill="#E2DCFF"/>
<path d="M548.928 214.931L520.437 227.25L512.964 209L505.024 227.25L485.874 222.231L495.683 238.656L477 251.431L495.683 255.081L492.413 282L512.964 263.75L528.844 279.263V255.081L555 251.431L533.048 240.938L548.928 214.931Z" fill="#220F80"/>
<path d="M580.82 61.8062L570.593 57.25L567.91 64L565.06 57.25L558.186 59.1062L561.707 53.0312L555 48.3062L561.707 46.9562L560.533 37L567.91 43.75L573.611 38.0125V46.9562L583 48.3062L575.12 52.1875L580.82 61.8062Z" fill="#220F80"/>
<path d="M64.098 119.555C62.6673 119.555 61.2737 119.284 59.917 118.741C58.5603 118.174 57.3393 117.347 56.254 116.262C55.1687 115.177 54.3053 113.832 53.664 112.229C53.0473 110.601 52.739 108.726 52.739 106.605C52.739 104.582 53.0597 102.769 53.701 101.166C54.3423 99.5627 55.1933 98.206 56.254 97.096C57.3393 95.986 58.5603 95.1473 59.917 94.58C61.2737 93.988 62.6673 93.692 64.098 93.692C65.5287 93.692 66.91 93.9757 68.242 94.543C69.5987 95.0857 70.8073 95.8997 71.868 96.985C72.9533 98.0703 73.8167 99.4147 74.458 101.018C75.0993 102.621 75.42 104.484 75.42 106.605C75.42 108.628 75.0993 110.441 74.458 112.044C73.8413 113.647 72.9903 115.016 71.905 116.151C70.8443 117.261 69.6357 118.112 68.279 118.704C66.9223 119.271 65.5287 119.555 64.098 119.555ZM64.098 117.705C65.3807 117.705 66.4783 117.397 67.391 116.78C68.3283 116.139 69.0807 115.3 69.648 114.264C70.24 113.203 70.6717 112.019 70.943 110.712C71.2143 109.38 71.35 108.011 71.35 106.605C71.35 105.224 71.2143 103.879 70.943 102.572C70.6717 101.24 70.24 100.044 69.648 98.983C69.0807 97.9223 68.3283 97.0837 67.391 96.467C66.4783 95.8503 65.3807 95.542 64.098 95.542C62.8153 95.542 61.7053 95.8503 60.768 96.467C59.8553 97.0837 59.103 97.9223 58.511 98.983C57.919 100.044 57.475 101.24 57.179 102.572C56.9077 103.879 56.772 105.224 56.772 106.605C56.772 108.011 56.9077 109.38 57.179 110.712C57.475 112.019 57.919 113.203 58.511 114.264C59.103 115.3 59.8553 116.139 60.768 116.78C61.7053 117.397 62.8153 117.705 64.098 117.705ZM78.0852 107.419L78.3812 101.425H95.4752L95.7712 107.419H94.0692L93.0332 103.016H88.5562C88.5315 103.953 88.5068 105.002 88.4822 106.161C88.4822 107.32 88.4822 108.332 88.4822 109.195V111.23C88.4822 112.069 88.4822 113.031 88.4822 114.116C88.5068 115.201 88.5315 116.213 88.5562 117.15L91.5162 117.668V119H82.3402V117.668L85.3002 117.15C85.3248 116.213 85.3372 115.201 85.3372 114.116C85.3618 113.031 85.3742 112.069 85.3742 111.23V109.195C85.3742 108.332 85.3618 107.32 85.3372 106.161C85.3372 105.002 85.3248 103.953 85.3002 103.016H80.8232L79.7872 107.419H78.0852ZM106.846 119.481C105.415 119.481 104.046 119.148 102.739 118.482C101.456 117.791 100.408 116.768 99.594 115.411C98.78 114.03 98.373 112.328 98.373 110.305C98.373 108.258 98.78 106.543 99.594 105.162C100.408 103.756 101.456 102.708 102.739 102.017C104.046 101.302 105.415 100.944 106.846 100.944C108.277 100.944 109.633 101.302 110.916 102.017C112.223 102.708 113.284 103.756 114.098 105.162C114.937 106.543 115.356 108.258 115.356 110.305C115.356 112.328 114.937 114.03 114.098 115.411C113.284 116.768 112.223 117.791 110.916 118.482C109.633 119.148 108.277 119.481 106.846 119.481ZM106.846 117.816C108.449 117.816 109.683 117.187 110.546 115.929C111.409 114.646 111.841 112.772 111.841 110.305C111.841 107.814 111.409 105.914 110.546 104.607C109.683 103.3 108.449 102.646 106.846 102.646C105.243 102.646 104.009 103.3 103.146 104.607C102.307 105.914 101.888 107.814 101.888 110.305C101.888 112.772 102.307 114.646 103.146 115.929C104.009 117.187 105.243 117.816 106.846 117.816ZM127.264 119.481C124.723 119.481 122.713 118.568 121.233 116.743C119.777 114.893 119.05 111.933 119.05 107.863C119.05 106.161 119.148 104.545 119.346 103.016C119.543 101.462 119.851 100.081 120.271 98.872C120.69 97.6633 121.233 96.7383 121.899 96.097C122.515 95.4803 123.132 94.9993 123.749 94.654C124.39 94.3087 125.118 94.0373 125.932 93.84C126.746 93.618 127.72 93.4207 128.855 93.248C129.57 93.1247 130.285 93.0013 131.001 92.878C131.741 92.7547 132.468 92.6313 133.184 92.508L134.035 90.88L135.034 91.213C134.861 92.101 134.688 92.878 134.516 93.544C134.343 94.21 134.084 94.728 133.739 95.098C133.393 95.4187 132.851 95.6653 132.111 95.838C131.395 96.0107 130.433 96.1833 129.225 96.356C127.671 96.578 126.376 96.8123 125.34 97.059C124.304 97.281 123.477 97.688 122.861 98.28C122.269 98.872 121.775 99.945 121.381 101.499C120.986 103.053 120.739 104.78 120.641 106.679C121.208 105.002 122.096 103.719 123.305 102.831C124.538 101.918 126.067 101.462 127.893 101.462C129.225 101.462 130.458 101.77 131.593 102.387C132.752 103.004 133.677 103.953 134.368 105.236C135.083 106.519 135.441 108.159 135.441 110.157C135.441 112.13 135.046 113.82 134.257 115.226C133.492 116.607 132.481 117.668 131.223 118.408C129.989 119.123 128.67 119.481 127.264 119.481ZM127.301 117.816C128.682 117.816 129.829 117.199 130.742 115.966C131.679 114.733 132.148 112.883 132.148 110.416C132.148 107.925 131.691 106.099 130.779 104.94C129.866 103.756 128.694 103.164 127.264 103.164C125.882 103.164 124.723 103.756 123.786 104.94C122.848 106.099 122.38 107.9 122.38 110.342C122.38 112.858 122.848 114.733 123.786 115.966C124.748 117.199 125.919 117.816 127.301 117.816ZM138.399 127.843V126.548L141.359 126.03C141.384 125.019 141.396 124.007 141.396 122.996C141.421 122.009 141.433 121.023 141.433 120.036V109.454C141.433 108.443 141.421 107.604 141.396 106.938C141.396 106.272 141.372 105.569 141.322 104.829L138.399 104.496V103.201L143.579 100.944L144.134 101.314L144.356 103.719C146.108 101.869 147.97 100.944 149.943 100.944C151.275 100.944 152.472 101.314 153.532 102.054C154.593 102.794 155.432 103.855 156.048 105.236C156.69 106.593 157.01 108.233 157.01 110.157C157.01 112.056 156.677 113.709 156.011 115.115C155.345 116.496 154.433 117.569 153.273 118.334C152.139 119.099 150.844 119.481 149.388 119.481C148.55 119.481 147.711 119.308 146.872 118.963C146.058 118.618 145.257 117.989 144.467 117.076V119.999C144.467 120.986 144.467 121.972 144.467 122.959C144.492 123.97 144.517 124.982 144.541 125.993L147.908 126.548V127.843H138.399ZM149.055 103.053C148.488 103.053 147.834 103.201 147.094 103.497C146.354 103.768 145.516 104.299 144.578 105.088V115.485C145.269 116.151 145.947 116.632 146.613 116.928C147.279 117.224 147.958 117.372 148.648 117.372C150.03 117.372 151.214 116.817 152.2 115.707C153.187 114.597 153.68 112.846 153.68 110.453C153.68 108.085 153.249 106.26 152.385 104.977C151.522 103.694 150.412 103.053 149.055 103.053ZM174.068 119.37C173.18 119.37 172.44 119.111 171.848 118.593C171.256 118.075 170.886 117.384 170.738 116.521C169.726 117.508 168.838 118.248 168.074 118.741C167.309 119.234 166.384 119.481 165.299 119.481C163.942 119.481 162.77 119.099 161.784 118.334C160.822 117.545 160.341 116.385 160.341 114.856C160.341 114.141 160.501 113.475 160.822 112.858C161.167 112.241 161.784 111.637 162.672 111.045C163.56 110.453 164.83 109.861 166.483 109.269C167.05 109.072 167.704 108.862 168.444 108.64C169.184 108.418 169.924 108.221 170.664 108.048V107.123C170.664 105.322 170.392 104.126 169.85 103.534C169.307 102.942 168.419 102.646 167.186 102.646C166.914 102.646 166.606 102.658 166.261 102.683C165.94 102.708 165.582 102.769 165.188 102.868L164.485 105.273C164.139 106.457 163.498 107.049 162.561 107.049C161.525 107.049 160.945 106.543 160.822 105.532C161.167 104.126 161.981 103.016 163.264 102.202C164.571 101.363 166.162 100.944 168.037 100.944C169.985 100.944 171.428 101.437 172.366 102.424C173.303 103.386 173.772 105.039 173.772 107.382V115.263C173.772 116.052 173.895 116.62 174.142 116.965C174.388 117.286 174.709 117.446 175.104 117.446C175.424 117.446 175.696 117.372 175.918 117.224C176.14 117.076 176.349 116.879 176.547 116.632L177.287 117.446C176.843 118.161 176.349 118.667 175.807 118.963C175.289 119.234 174.709 119.37 174.068 119.37ZM163.634 114.301C163.634 115.288 163.917 115.991 164.485 116.41C165.052 116.829 165.755 117.039 166.594 117.039C166.964 117.039 167.309 116.99 167.63 116.891C167.975 116.792 168.382 116.607 168.851 116.336C169.319 116.04 169.924 115.621 170.664 115.078V109.417C170.022 109.59 169.393 109.787 168.777 110.009C168.16 110.206 167.654 110.379 167.26 110.527C166.199 110.946 165.41 111.378 164.892 111.822C164.374 112.266 164.028 112.698 163.856 113.117C163.708 113.536 163.634 113.931 163.634 114.301ZM177.703 107.419L177.999 101.425H195.093L195.389 107.419H193.687L192.651 103.016H188.174C188.15 103.953 188.125 105.002 188.1 106.161C188.1 107.32 188.1 108.332 188.1 109.195V111.23C188.1 112.069 188.1 113.031 188.1 114.116C188.125 115.201 188.15 116.213 188.174 117.15L191.134 117.668V119H181.958V117.668L184.918 117.15C184.943 116.213 184.955 115.201 184.955 114.116C184.98 113.031 184.992 112.069 184.992 111.23V109.195C184.992 108.332 184.98 107.32 184.955 106.161C184.955 105.002 184.943 103.953 184.918 103.016H180.441L179.405 107.419H177.703ZM197.954 102.757V101.425H206.39V102.757L203.837 103.275C203.813 104.015 203.788 104.829 203.763 105.717C203.763 106.58 203.763 107.407 203.763 108.196C204.306 108.122 204.849 108.073 205.391 108.048C205.959 107.999 206.477 107.974 206.945 107.974C208.524 107.974 209.819 108.221 210.83 108.714C211.866 109.207 212.631 109.873 213.124 110.712C213.642 111.526 213.901 112.426 213.901 113.413C213.901 114.942 213.297 116.262 212.088 117.372C210.904 118.457 209.104 119 206.686 119H197.954V117.668L200.544 117.187C200.569 116.25 200.581 115.238 200.581 114.153C200.606 113.043 200.618 112.069 200.618 111.23V109.195C200.618 108.356 200.606 107.382 200.581 106.272C200.581 105.162 200.569 104.151 200.544 103.238L197.954 102.757ZM203.763 111.23C203.763 112.118 203.763 113.142 203.763 114.301C203.788 115.46 203.813 116.509 203.837 117.446H206.205C207.636 117.446 208.734 117.125 209.498 116.484C210.288 115.843 210.682 114.881 210.682 113.598C210.682 112.241 210.337 111.255 209.646 110.638C208.956 110.021 207.784 109.713 206.131 109.713C205.761 109.713 205.379 109.738 204.984 109.787C204.59 109.812 204.183 109.849 203.763 109.898V111.23ZM227.01 119.444C226.048 119.444 225.295 119.173 224.753 118.63C224.235 118.087 223.976 117.224 223.976 116.04C224.222 115.473 224.58 115.029 225.049 114.708C225.542 114.363 226.134 114.19 226.825 114.19C227.244 114.19 227.614 114.264 227.935 114.412C228.255 114.535 228.551 114.72 228.823 114.967C229.193 114.424 229.501 113.721 229.748 112.858C230.118 111.625 230.401 110.206 230.599 108.603C230.821 107 230.981 105.273 231.08 103.423L228.453 102.831V101.129H244.77V102.831L242.809 103.238C242.784 104.151 242.772 105.125 242.772 106.161C242.772 107.197 242.772 108.11 242.772 108.899V111.23C242.772 112.019 242.772 112.932 242.772 113.968C242.772 114.979 242.784 115.941 242.809 116.854L244.77 117.261V119H234.854V117.261L236.815 116.854C236.839 115.941 236.852 114.979 236.852 113.968C236.852 112.932 236.852 112.019 236.852 111.23V108.899C236.852 108.085 236.852 107.135 236.852 106.05C236.852 104.965 236.839 103.966 236.815 103.053H233.152C233.078 105.051 232.917 106.987 232.671 108.862C232.449 110.712 232.091 112.476 231.598 114.153C231.055 116.102 230.389 117.471 229.6 118.26C228.81 119.049 227.947 119.444 227.01 119.444ZM258.338 102.72V101.129H265.294V102.72L263.185 103.09L256.451 120.517C255.538 122.885 254.588 124.686 253.602 125.919C252.615 127.152 251.258 127.769 249.532 127.769C248.545 127.769 247.669 127.498 246.905 126.955C246.165 126.412 245.77 125.759 245.721 124.994C245.869 124.18 246.226 123.576 246.794 123.181C247.386 122.786 248.039 122.589 248.755 122.589C249.248 122.589 249.778 122.688 250.346 122.885C250.913 123.107 251.443 123.588 251.937 124.328L252.196 124.698C253.281 123.539 254.12 122.12 254.712 120.443V120.406L247.349 103.016L245.61 102.72V101.129H256.118V102.72L253.639 103.164L257.265 113.154L260.78 103.164L258.338 102.72ZM276.651 102.831V101.129H286.345V102.831L284.347 103.238C284.322 104.151 284.31 105.125 284.31 106.161C284.31 107.197 284.31 108.11 284.31 108.899V111.23C284.31 112.019 284.31 112.932 284.31 113.968C284.31 114.979 284.322 115.941 284.347 116.854L286.345 117.261V119H276.429V117.261L278.39 116.854C278.39 115.991 278.39 115.078 278.39 114.116C278.414 113.154 278.427 112.291 278.427 111.526C277.761 111.773 277.021 111.982 276.207 112.155C275.417 112.328 274.455 112.414 273.321 112.414C271.347 112.414 269.929 111.945 269.066 111.008C268.202 110.046 267.771 108.776 267.771 107.197C267.771 106.556 267.771 105.902 267.771 105.236C267.771 104.545 267.783 103.867 267.808 103.201L266.143 102.831V101.129H275.282V102.831L273.432 103.238C273.407 103.682 273.395 104.188 273.395 104.755C273.395 105.298 273.395 105.951 273.395 106.716C273.395 107.801 273.58 108.591 273.95 109.084C274.344 109.577 275.047 109.824 276.059 109.824C276.971 109.824 277.761 109.738 278.427 109.565V108.899C278.427 108.11 278.427 107.197 278.427 106.161C278.427 105.1 278.414 104.114 278.39 103.201L276.651 102.831ZM309.025 102.831V101.129H318.349V102.831L316.351 103.238C316.326 104.151 316.314 105.125 316.314 106.161C316.314 107.197 316.314 108.11 316.314 108.899V111.23C316.314 112.019 316.314 112.932 316.314 113.968C316.314 114.979 316.326 115.941 316.351 116.854L318.349 117.261V119H288.49V117.261L290.451 116.854C290.476 115.941 290.488 114.979 290.488 113.968C290.488 112.932 290.488 112.019 290.488 111.23V108.899C290.488 108.11 290.488 107.197 290.488 106.161C290.488 105.125 290.476 104.151 290.451 103.238L288.49 102.831V101.129H297.777V102.831L296.186 103.201C296.161 104.114 296.149 105.1 296.149 106.161C296.149 107.197 296.149 108.11 296.149 108.899V111.23C296.149 112.044 296.149 112.994 296.149 114.079C296.149 115.14 296.161 116.126 296.186 117.039H300.626C300.651 116.126 300.663 115.14 300.663 114.079C300.663 112.994 300.663 112.044 300.663 111.23V108.899C300.663 108.11 300.663 107.197 300.663 106.161C300.663 105.1 300.651 104.114 300.626 103.201L299.035 102.831V101.129H307.804V102.831L306.176 103.201C306.151 104.114 306.139 105.1 306.139 106.161C306.139 107.197 306.139 108.11 306.139 108.899V111.23C306.139 112.044 306.139 112.994 306.139 114.079C306.139 115.14 306.151 116.126 306.176 117.039H310.653C310.678 116.126 310.69 115.14 310.69 114.079C310.69 112.994 310.69 112.044 310.69 111.23V108.899C310.69 108.11 310.69 107.197 310.69 106.161C310.69 105.1 310.678 104.114 310.653 103.201L309.025 102.831ZM333.01 102.831V101.129H342.593V102.831L340.632 103.238C340.607 104.151 340.595 105.125 340.595 106.161C340.595 107.197 340.595 108.11 340.595 108.899V111.23C340.595 112.019 340.595 112.932 340.595 113.968C340.595 114.979 340.607 115.941 340.632 116.854L342.593 117.261V119H333.01V117.261L335.267 116.706V107.16L328.163 115.411V116.743L330.42 117.261V119H320.504V117.261L322.465 116.854C322.489 115.941 322.502 114.979 322.502 113.968C322.502 112.932 322.502 112.019 322.502 111.23V108.899C322.502 108.11 322.502 107.197 322.502 106.161C322.502 105.125 322.489 104.151 322.465 103.238L320.504 102.831V101.129H330.42V102.831L328.163 103.349V112.562L335.267 104.348V103.386L333.01 102.831ZM356.625 102.757V101.129H363.1V102.757L360.991 103.164L356.699 108.973L361.657 116.891L363.766 117.261V119H353.184V117.261L354.886 117.002L352.148 112.562L349.262 116.928L351.075 117.261V119H344.082V117.261L346.635 116.854L351.075 110.823L346.265 103.053L344.193 102.757V101.129H354.59V102.757L352.962 103.016L355.663 107.308L358.401 103.164L356.625 102.757ZM65.134 169.076L63.839 165.228C63.5677 164.365 63.173 163.773 62.655 163.452C62.137 163.107 61.4093 162.934 60.472 162.934H58.437C58.437 163.921 58.437 164.981 58.437 166.116C58.4617 167.226 58.4863 168.237 58.511 169.15L61.064 169.668V171H52.628V169.668L55.218 169.187C55.2427 168.25 55.255 167.238 55.255 166.153C55.2797 165.043 55.292 164.069 55.292 163.23V161.195C55.292 160.356 55.2797 159.382 55.255 158.272C55.255 157.162 55.2427 156.151 55.218 155.238L52.628 154.757V153.425H61.064V154.757L58.511 155.275C58.4863 156.188 58.4617 157.211 58.437 158.346C58.437 159.481 58.437 160.492 58.437 161.38H60.324C61.1873 161.38 61.9397 161.146 62.581 160.677C63.2223 160.208 63.7773 159.259 64.246 157.828C64.8133 156.2 65.4423 155.004 66.133 154.239C66.8483 153.474 67.798 153.043 68.982 152.944C70.0427 153.215 70.573 153.844 70.573 154.831C70.5483 155.374 70.351 155.818 69.981 156.163C69.6357 156.484 69.056 156.644 68.242 156.644C67.8967 156.644 67.5883 156.632 67.317 156.607C67.0457 156.582 66.7743 156.558 66.503 156.533C66.3797 156.78 66.244 157.063 66.096 157.384C65.9727 157.68 65.8493 158.025 65.726 158.42C65.4053 159.407 64.9983 160.196 64.505 160.788C64.0363 161.38 63.4443 161.836 62.729 162.157C63.8883 162.404 64.8133 162.848 65.504 163.489C66.1947 164.106 66.7373 164.994 67.132 166.153L68.205 169.224L70.943 169.668V171C70.573 171.099 70.1783 171.185 69.759 171.259C69.3397 171.358 68.9573 171.407 68.612 171.407C67.6253 171.407 66.873 171.259 66.355 170.963C65.837 170.642 65.43 170.013 65.134 169.076ZM86.4818 171.37C85.5938 171.37 84.8538 171.111 84.2618 170.593C83.6698 170.075 83.2998 169.384 83.1518 168.521C82.1405 169.508 81.2525 170.248 80.4878 170.741C79.7232 171.234 78.7982 171.481 77.7128 171.481C76.3562 171.481 75.1845 171.099 74.1978 170.334C73.2358 169.545 72.7548 168.385 72.7548 166.856C72.7548 166.141 72.9152 165.475 73.2358 164.858C73.5812 164.241 74.1978 163.637 75.0858 163.045C75.9738 162.453 77.2442 161.861 78.8968 161.269C79.4642 161.072 80.1178 160.862 80.8578 160.64C81.5978 160.418 82.3378 160.221 83.0778 160.048V159.123C83.0778 157.322 82.8065 156.126 82.2638 155.534C81.7212 154.942 80.8332 154.646 79.5998 154.646C79.3285 154.646 79.0202 154.658 78.6748 154.683C78.3542 154.708 77.9965 154.769 77.6018 154.868L76.8988 157.273C76.5535 158.457 75.9122 159.049 74.9748 159.049C73.9388 159.049 73.3592 158.543 73.2358 157.532C73.5812 156.126 74.3952 155.016 75.6778 154.202C76.9852 153.363 78.5762 152.944 80.4508 152.944C82.3995 152.944 83.8425 153.437 84.7798 154.424C85.7172 155.386 86.1858 157.039 86.1858 159.382V167.263C86.1858 168.052 86.3092 168.62 86.5558 168.965C86.8025 169.286 87.1232 169.446 87.5178 169.446C87.8385 169.446 88.1098 169.372 88.3318 169.224C88.5538 169.076 88.7635 168.879 88.9608 168.632L89.7008 169.446C89.2568 170.161 88.7635 170.667 88.2208 170.963C87.7028 171.234 87.1232 171.37 86.4818 171.37ZM76.0478 166.301C76.0478 167.288 76.3315 167.991 76.8988 168.41C77.4662 168.829 78.1692 169.039 79.0078 169.039C79.3778 169.039 79.7232 168.99 80.0438 168.891C80.3892 168.792 80.7962 168.607 81.2648 168.336C81.7335 168.04 82.3378 167.621 83.0778 167.078V161.417C82.4365 161.59 81.8075 161.787 81.1908 162.009C80.5742 162.206 80.0685 162.379 79.6738 162.527C78.6132 162.946 77.8238 163.378 77.3058 163.822C76.7878 164.266 76.4425 164.698 76.2698 165.117C76.1218 165.536 76.0478 165.931 76.0478 166.301ZM103.054 154.757V153.425H111.527V154.757L108.937 155.275C108.913 156.188 108.888 157.199 108.863 158.309C108.863 159.394 108.863 160.356 108.863 161.195V163.23C108.863 164.069 108.863 165.031 108.863 166.116C108.888 167.201 108.913 168.213 108.937 169.15L111.527 169.668V171H103.054V169.668L105.644 169.187C105.669 168.274 105.681 167.238 105.681 166.079C105.706 164.895 105.718 163.736 105.718 162.601H97.1714C97.1714 163.736 97.1714 164.883 97.1714 166.042C97.196 167.201 97.2207 168.237 97.2454 169.15L99.7984 169.668V171H91.3624V169.668L93.9524 169.187C93.977 168.25 93.9894 167.238 93.9894 166.153C94.014 165.043 94.0264 164.069 94.0264 163.23V161.195C94.0264 160.356 94.014 159.382 93.9894 158.272C93.9894 157.162 93.977 156.151 93.9524 155.238L91.3624 154.757V153.425H99.7984V154.757L97.2454 155.275C97.2207 156.163 97.196 157.137 97.1714 158.198C97.1714 159.234 97.1714 160.171 97.1714 161.01H105.718C105.718 160.147 105.706 159.197 105.681 158.161C105.681 157.1 105.669 156.126 105.644 155.238L103.054 154.757ZM126.328 161.195C126.328 160.332 126.316 159.32 126.291 158.161C126.291 157.002 126.279 155.953 126.254 155.016H122.665C122.394 157.729 121.839 160.282 121 162.675C120.162 165.068 119.175 167.312 118.04 169.409H126.254C126.279 168.472 126.291 167.436 126.291 166.301C126.316 165.142 126.328 164.118 126.328 163.23V161.195ZM117.892 154.757V153.425H132.174V154.757L129.51 155.275C129.486 156.188 129.461 157.199 129.436 158.309C129.436 159.394 129.436 160.356 129.436 161.195V163.23C129.436 164.118 129.436 165.142 129.436 166.301C129.461 167.436 129.486 168.472 129.51 169.409H132.544L132.322 176.55H130.62L129.769 171H116.301L115.45 176.55H113.711L113.526 169.409H115.413C116.77 167.436 117.905 165.314 118.817 163.045C119.755 160.776 120.396 158.223 120.741 155.386L117.892 154.757ZM147.617 154.757V153.425H156.053V154.757L153.463 155.275C153.439 156.188 153.414 157.199 153.389 158.309C153.389 159.394 153.389 160.356 153.389 161.195V163.23C153.389 164.069 153.389 165.043 153.389 166.153C153.414 167.238 153.439 168.237 153.463 169.15L156.053 169.668V171H147.617V169.668L150.429 169.113V158.309L141.105 168.262V169.113L143.88 169.668V171H135.444V169.668L138.034 169.15C138.059 168.237 138.071 167.238 138.071 166.153C138.096 165.043 138.108 164.069 138.108 163.23V161.195C138.108 160.356 138.096 159.382 138.071 158.272C138.071 157.162 138.059 156.151 138.034 155.238L135.444 154.757V153.425H143.88V154.757L141.105 155.312V166.079L150.429 156.163V155.312L147.617 154.757ZM170.844 161.195C170.844 160.332 170.832 159.32 170.807 158.161C170.807 157.002 170.795 155.953 170.77 155.016H167.181C166.91 157.729 166.355 160.282 165.516 162.675C164.677 165.068 163.691 167.312 162.556 169.409H170.77C170.795 168.472 170.807 167.436 170.807 166.301C170.832 165.142 170.844 164.118 170.844 163.23V161.195ZM162.408 154.757V153.425H176.69V154.757L174.026 155.275C174.001 156.188 173.977 157.199 173.952 158.309C173.952 159.394 173.952 160.356 173.952 161.195V163.23C173.952 164.118 173.952 165.142 173.952 166.301C173.977 167.436 174.001 168.472 174.026 169.409H177.06L176.838 176.55H175.136L174.285 171H160.817L159.966 176.55H158.227L158.042 169.409H159.929C161.286 167.436 162.42 165.314 163.333 163.045C164.27 160.776 164.912 158.223 165.257 155.386L162.408 154.757ZM193.724 171.37C192.836 171.37 192.096 171.111 191.504 170.593C190.912 170.075 190.542 169.384 190.394 168.521C189.383 169.508 188.495 170.248 187.73 170.741C186.965 171.234 186.04 171.481 184.955 171.481C183.598 171.481 182.427 171.099 181.44 170.334C180.478 169.545 179.997 168.385 179.997 166.856C179.997 166.141 180.157 165.475 180.478 164.858C180.823 164.241 181.44 163.637 182.328 163.045C183.216 162.453 184.486 161.861 186.139 161.269C186.706 161.072 187.36 160.862 188.1 160.64C188.84 160.418 189.58 160.221 190.32 160.048V159.123C190.32 157.322 190.049 156.126 189.506 155.534C188.963 154.942 188.075 154.646 186.842 154.646C186.571 154.646 186.262 154.658 185.917 154.683C185.596 154.708 185.239 154.769 184.844 154.868L184.141 157.273C183.796 158.457 183.154 159.049 182.217 159.049C181.181 159.049 180.601 158.543 180.478 157.532C180.823 156.126 181.637 155.016 182.92 154.202C184.227 153.363 185.818 152.944 187.693 152.944C189.642 152.944 191.085 153.437 192.022 154.424C192.959 155.386 193.428 157.039 193.428 159.382V167.263C193.428 168.052 193.551 168.62 193.798 168.965C194.045 169.286 194.365 169.446 194.76 169.446C195.081 169.446 195.352 169.372 195.574 169.224C195.796 169.076 196.006 168.879 196.203 168.632L196.943 169.446C196.499 170.161 196.006 170.667 195.463 170.963C194.945 171.234 194.365 171.37 193.724 171.37ZM183.29 166.301C183.29 167.288 183.574 167.991 184.141 168.41C184.708 168.829 185.411 169.039 186.25 169.039C186.62 169.039 186.965 168.99 187.286 168.891C187.631 168.792 188.038 168.607 188.507 168.336C188.976 168.04 189.58 167.621 190.32 167.078V161.417C189.679 161.59 189.05 161.787 188.433 162.009C187.816 162.206 187.311 162.379 186.916 162.527C185.855 162.946 185.066 163.378 184.548 163.822C184.03 164.266 183.685 164.698 183.512 165.117C183.364 165.536 183.29 165.931 183.29 166.301ZM197.36 159.419L197.656 153.425H214.75L215.046 159.419H213.344L212.308 155.016H207.831C207.806 155.953 207.781 157.002 207.757 158.161C207.757 159.32 207.757 160.332 207.757 161.195V163.23C207.757 164.069 207.757 165.031 207.757 166.116C207.781 167.201 207.806 168.213 207.831 169.15L210.791 169.668V171H201.615V169.668L204.575 169.15C204.599 168.213 204.612 167.201 204.612 166.116C204.636 165.031 204.649 164.069 204.649 163.23V161.195C204.649 160.332 204.636 159.32 204.612 158.161C204.612 157.002 204.599 155.953 204.575 155.016H200.098L199.062 159.419H197.36ZM226.12 171.481C224.69 171.481 223.321 171.148 222.013 170.482C220.731 169.791 219.682 168.768 218.868 167.411C218.054 166.03 217.647 164.328 217.647 162.305C217.647 160.258 218.054 158.543 218.868 157.162C219.682 155.756 220.731 154.708 222.013 154.017C223.321 153.302 224.69 152.944 226.12 152.944C227.551 152.944 228.908 153.302 230.19 154.017C231.498 154.708 232.558 155.756 233.372 157.162C234.211 158.543 234.63 160.258 234.63 162.305C234.63 164.328 234.211 166.03 233.372 167.411C232.558 168.768 231.498 169.791 230.19 170.482C228.908 171.148 227.551 171.481 226.12 171.481ZM226.12 169.816C227.724 169.816 228.957 169.187 229.82 167.929C230.684 166.646 231.115 164.772 231.115 162.305C231.115 159.814 230.684 157.914 229.82 156.607C228.957 155.3 227.724 154.646 226.12 154.646C224.517 154.646 223.284 155.3 222.42 156.607C221.582 157.914 221.162 159.814 221.162 162.305C221.162 164.772 221.582 166.646 222.42 167.929C223.284 169.187 224.517 169.816 226.12 169.816ZM237.917 154.757V153.425H247.537C249.436 153.425 250.879 153.832 251.866 154.646C252.877 155.46 253.383 156.484 253.383 157.717C253.383 158.63 253.075 159.481 252.458 160.27C251.866 161.035 250.842 161.565 249.387 161.861C251.114 162.108 252.347 162.638 253.087 163.452C253.852 164.241 254.234 165.179 254.234 166.264C254.234 167.029 254 167.781 253.531 168.521C253.062 169.236 252.31 169.828 251.274 170.297C250.238 170.766 248.857 171 247.13 171H237.917V169.668L240.507 169.187C240.532 168.25 240.544 167.238 240.544 166.153C240.569 165.043 240.581 164.069 240.581 163.23V161.195C240.581 160.356 240.569 159.382 240.544 158.272C240.544 157.162 240.532 156.151 240.507 155.238L237.917 154.757ZM243.689 163.23C243.689 164.118 243.689 165.142 243.689 166.301C243.714 167.436 243.738 168.472 243.763 169.409H246.501C249.486 169.409 250.978 168.348 250.978 166.227C250.978 165.068 250.608 164.18 249.868 163.563C249.128 162.946 247.932 162.638 246.279 162.638H243.689V163.23ZM246.723 155.016H243.763C243.738 155.879 243.714 156.878 243.689 158.013C243.689 159.123 243.689 160.184 243.689 161.195H246.205C247.636 161.195 248.672 160.936 249.313 160.418C249.954 159.875 250.275 159.061 250.275 157.976C250.275 156.94 249.967 156.188 249.35 155.719C248.758 155.25 247.882 155.016 246.723 155.016ZM264.964 159.419L265.26 153.425H282.354L282.65 159.419H280.948L279.912 155.016H275.435C275.41 155.953 275.386 157.002 275.361 158.161C275.361 159.32 275.361 160.332 275.361 161.195V163.23C275.361 164.069 275.361 165.031 275.361 166.116C275.386 167.201 275.41 168.213 275.435 169.15L278.395 169.668V171H269.219V169.668L272.179 169.15C272.204 168.213 272.216 167.201 272.216 166.116C272.241 165.031 272.253 164.069 272.253 163.23V161.195C272.253 160.332 272.241 159.32 272.216 158.161C272.216 157.002 272.204 155.953 272.179 155.016H267.702L266.666 159.419H264.964ZM293.54 154.646C292.849 154.646 292.146 154.843 291.431 155.238C290.74 155.633 290.136 156.262 289.618 157.125C289.125 157.988 288.804 159.135 288.656 160.566H295.39C296.278 160.566 296.858 160.381 297.129 160.011C297.425 159.641 297.573 159.185 297.573 158.642C297.573 157.927 297.388 157.273 297.018 156.681C296.673 156.064 296.192 155.571 295.575 155.201C294.983 154.831 294.305 154.646 293.54 154.646ZM293.503 171.481C291.012 171.481 289.014 170.679 287.509 169.076C286.004 167.448 285.252 165.216 285.252 162.379C285.252 160.48 285.634 158.827 286.399 157.421C287.188 156.015 288.224 154.917 289.507 154.128C290.814 153.339 292.233 152.944 293.762 152.944C295.045 152.944 296.204 153.228 297.24 153.795C298.276 154.362 299.102 155.176 299.719 156.237C300.336 157.273 300.644 158.543 300.644 160.048C300.644 160.467 300.619 160.862 300.57 161.232C300.521 161.577 300.459 161.873 300.385 162.12H288.582C288.631 164.389 289.199 166.116 290.284 167.3C291.369 168.484 292.8 169.076 294.576 169.076C295.76 169.076 296.747 168.842 297.536 168.373C298.325 167.88 299.053 167.251 299.719 166.486L300.607 167.189C299.916 168.496 298.979 169.545 297.795 170.334C296.611 171.099 295.18 171.481 293.503 171.481ZM304.076 171V169.668L306.666 169.187C306.691 168.25 306.703 167.238 306.703 166.153C306.728 165.043 306.74 164.069 306.74 163.23V161.195C306.74 160.356 306.728 159.382 306.703 158.272C306.703 157.162 306.691 156.151 306.666 155.238L304.076 154.757V153.425H323.982V154.757L321.392 155.275C321.368 156.188 321.343 157.199 321.318 158.309C321.318 159.394 321.318 160.356 321.318 161.195V163.23C321.318 164.069 321.318 165.031 321.318 166.116C321.343 167.201 321.368 168.213 321.392 169.15L323.982 169.668V171H315.546V169.668L318.136 169.187C318.161 168.25 318.173 167.238 318.173 166.153C318.198 165.043 318.21 164.069 318.21 163.23V161.195C318.21 160.332 318.198 159.32 318.173 158.161C318.173 157.002 318.161 155.953 318.136 155.016H309.959C309.935 155.953 309.91 157.002 309.885 158.161C309.885 159.32 309.885 160.332 309.885 161.195V163.23C309.885 164.069 309.885 165.031 309.885 166.116C309.91 167.201 309.935 168.213 309.959 169.15L312.512 169.668V171H304.076ZM335.201 154.646C334.51 154.646 333.807 154.843 333.092 155.238C332.401 155.633 331.797 156.262 331.279 157.125C330.786 157.988 330.465 159.135 330.317 160.566H337.051C337.939 160.566 338.519 160.381 338.79 160.011C339.086 159.641 339.234 159.185 339.234 158.642C339.234 157.927 339.049 157.273 338.679 156.681C338.334 156.064 337.853 155.571 337.236 155.201C336.644 154.831 335.966 154.646 335.201 154.646ZM335.164 171.481C332.673 171.481 330.675 170.679 329.17 169.076C327.665 167.448 326.913 165.216 326.913 162.379C326.913 160.48 327.295 158.827 328.06 157.421C328.849 156.015 329.885 154.917 331.168 154.128C332.475 153.339 333.894 152.944 335.423 152.944C336.706 152.944 337.865 153.228 338.901 153.795C339.937 154.362 340.763 155.176 341.38 156.237C341.997 157.273 342.305 158.543 342.305 160.048C342.305 160.467 342.28 160.862 342.231 161.232C342.182 161.577 342.12 161.873 342.046 162.12H330.243C330.292 164.389 330.86 166.116 331.945 167.3C333.03 168.484 334.461 169.076 336.237 169.076C337.421 169.076 338.408 168.842 339.197 168.373C339.986 167.88 340.714 167.251 341.38 166.486L342.268 167.189C341.577 168.496 340.64 169.545 339.456 170.334C338.272 171.099 336.841 171.481 335.164 171.481ZM345.043 179.843V178.548L348.003 178.03C348.028 177.019 348.04 176.007 348.04 174.996C348.065 174.009 348.077 173.023 348.077 172.036V161.454C348.077 160.443 348.065 159.604 348.04 158.938C348.04 158.272 348.015 157.569 347.966 156.829L345.043 156.496V155.201L350.223 152.944L350.778 153.314L351 155.719C352.751 153.869 354.614 152.944 356.587 152.944C357.919 152.944 359.115 153.314 360.176 154.054C361.237 154.794 362.075 155.855 362.692 157.236C363.333 158.593 363.654 160.233 363.654 162.157C363.654 164.056 363.321 165.709 362.655 167.115C361.989 168.496 361.076 169.569 359.917 170.334C358.782 171.099 357.487 171.481 356.032 171.481C355.193 171.481 354.355 171.308 353.516 170.963C352.702 170.618 351.9 169.989 351.111 169.076V171.999C351.111 172.986 351.111 173.972 351.111 174.959C351.136 175.97 351.16 176.982 351.185 177.993L354.552 178.548V179.843H345.043ZM355.699 155.053C355.132 155.053 354.478 155.201 353.738 155.497C352.998 155.768 352.159 156.299 351.222 157.088V167.485C351.913 168.151 352.591 168.632 353.257 168.928C353.923 169.224 354.601 169.372 355.292 169.372C356.673 169.372 357.857 168.817 358.844 167.707C359.831 166.597 360.324 164.846 360.324 162.453C360.324 160.085 359.892 158.26 359.029 156.977C358.166 155.694 357.056 155.053 355.699 155.053ZM366.947 154.757V153.425H375.383V154.757L372.83 155.275C372.806 156.015 372.781 156.829 372.756 157.717C372.756 158.58 372.756 159.407 372.756 160.196C373.299 160.122 373.842 160.073 374.384 160.048C374.952 159.999 375.47 159.974 375.938 159.974C377.517 159.974 378.812 160.221 379.823 160.714C380.859 161.207 381.624 161.873 382.117 162.712C382.635 163.526 382.894 164.426 382.894 165.413C382.894 166.942 382.29 168.262 381.081 169.372C379.897 170.457 378.097 171 375.679 171H366.947V169.668L369.537 169.187C369.562 168.25 369.574 167.238 369.574 166.153C369.599 165.043 369.611 164.069 369.611 163.23V161.195C369.611 160.356 369.599 159.382 369.574 158.272C369.574 157.162 369.562 156.151 369.537 155.238L366.947 154.757ZM372.756 163.23C372.756 164.118 372.756 165.142 372.756 166.301C372.781 167.46 372.806 168.509 372.83 169.446H375.198C376.629 169.446 377.727 169.125 378.491 168.484C379.281 167.843 379.675 166.881 379.675 165.598C379.675 164.241 379.33 163.255 378.639 162.638C377.949 162.021 376.777 161.713 375.124 161.713C374.754 161.713 374.372 161.738 373.977 161.787C373.583 161.812 373.176 161.849 372.756 161.898V163.23ZM395.707 171.481C394.942 171.481 394.338 171.271 393.894 170.852C393.45 170.433 393.228 169.779 393.228 168.891C393.425 168.447 393.659 168.102 393.931 167.855C394.202 167.608 394.535 167.485 394.93 167.485C395.423 167.485 395.842 167.596 396.188 167.818C396.558 168.04 396.903 168.324 397.224 168.669C397.717 168.176 398.112 167.633 398.408 167.041C398.704 166.449 398.987 165.684 399.259 164.747C399.604 163.662 399.888 162.305 400.11 160.677C400.356 159.049 400.529 157.298 400.628 155.423L397.483 154.757V153.425H412.283V154.757L409.693 155.275C409.668 156.188 409.643 157.199 409.619 158.309C409.619 159.394 409.619 160.356 409.619 161.195V163.23C409.619 164.069 409.619 165.031 409.619 166.116C409.643 167.201 409.668 168.213 409.693 169.15L412.283 169.668V171H403.847V169.668L406.437 169.187C406.461 168.25 406.474 167.238 406.474 166.153C406.498 165.043 406.511 164.069 406.511 163.23V161.195C406.511 160.332 406.498 159.32 406.474 158.161C406.474 157.002 406.461 155.953 406.437 155.016H402.515C402.416 157.063 402.231 159.012 401.96 160.862C401.688 162.687 401.343 164.291 400.924 165.672C400.43 167.201 399.888 168.398 399.296 169.261C398.728 170.1 398.136 170.679 397.52 171C396.903 171.321 396.299 171.481 395.707 171.481ZM423.546 154.646C422.855 154.646 422.152 154.843 421.437 155.238C420.746 155.633 420.142 156.262 419.624 157.125C419.13 157.988 418.81 159.135 418.662 160.566H425.396C426.284 160.566 426.863 160.381 427.135 160.011C427.431 159.641 427.579 159.185 427.579 158.642C427.579 157.927 427.394 157.273 427.024 156.681C426.678 156.064 426.197 155.571 425.581 155.201C424.989 154.831 424.31 154.646 423.546 154.646ZM423.509 171.481C421.017 171.481 419.019 170.679 417.515 169.076C416.01 167.448 415.258 165.216 415.258 162.379C415.258 160.48 415.64 158.827 416.405 157.421C417.194 156.015 418.23 154.917 419.513 154.128C420.82 153.339 422.238 152.944 423.768 152.944C425.05 152.944 426.21 153.228 427.246 153.795C428.282 154.362 429.108 155.176 429.725 156.237C430.341 157.273 430.65 158.543 430.65 160.048C430.65 160.467 430.625 160.862 430.576 161.232C430.526 161.577 430.465 161.873 430.391 162.12H418.588C418.637 164.389 419.204 166.116 420.29 167.3C421.375 168.484 422.806 169.076 424.582 169.076C425.766 169.076 426.752 168.842 427.542 168.373C428.331 167.88 429.059 167.251 429.725 166.486L430.613 167.189C429.922 168.496 428.985 169.545 427.801 170.334C426.617 171.099 425.186 171.481 423.509 171.481ZM434.082 154.757V153.425H447.957L448.253 159.789H446.514L445.33 155.016H439.965C439.94 155.953 439.916 157.002 439.891 158.161C439.891 159.32 439.891 160.332 439.891 161.195V163.23C439.891 164.069 439.891 165.043 439.891 166.153C439.916 167.238 439.94 168.237 439.965 169.15L442.925 169.668V171H434.082V169.668L436.672 169.15C436.697 168.213 436.709 167.201 436.709 166.116C436.734 165.031 436.746 164.069 436.746 163.23V161.195C436.746 160.356 436.734 159.382 436.709 158.272C436.709 157.162 436.697 156.151 436.672 155.238L434.082 154.757ZM463.137 169.076L461.842 165.228C461.571 164.365 461.176 163.773 460.658 163.452C460.14 163.107 459.412 162.934 458.475 162.934H456.44C456.44 163.921 456.44 164.981 456.44 166.116C456.465 167.226 456.489 168.237 456.514 169.15L459.067 169.668V171H450.631V169.668L453.221 169.187C453.246 168.25 453.258 167.238 453.258 166.153C453.283 165.043 453.295 164.069 453.295 163.23V161.195C453.295 160.356 453.283 159.382 453.258 158.272C453.258 157.162 453.246 156.151 453.221 155.238L450.631 154.757V153.425H459.067V154.757L456.514 155.275C456.489 156.188 456.465 157.211 456.44 158.346C456.44 159.481 456.44 160.492 456.44 161.38H458.327C459.19 161.38 459.943 161.146 460.584 160.677C461.225 160.208 461.78 159.259 462.249 157.828C462.816 156.2 463.445 155.004 464.136 154.239C464.851 153.474 465.801 153.043 466.985 152.944C468.046 153.215 468.576 153.844 468.576 154.831C468.551 155.374 468.354 155.818 467.984 156.163C467.639 156.484 467.059 156.644 466.245 156.644C465.9 156.644 465.591 156.632 465.32 156.607C465.049 156.582 464.777 156.558 464.506 156.533C464.383 156.78 464.247 157.063 464.099 157.384C463.976 157.68 463.852 158.025 463.729 158.42C463.408 159.407 463.001 160.196 462.508 160.788C462.039 161.38 461.447 161.836 460.732 162.157C461.891 162.404 462.816 162.848 463.507 163.489C464.198 164.106 464.74 164.994 465.135 166.153L466.208 169.224L468.946 169.668V171C468.576 171.099 468.181 171.185 467.762 171.259C467.343 171.358 466.96 171.407 466.615 171.407C465.628 171.407 464.876 171.259 464.358 170.963C463.84 170.642 463.433 170.013 463.137 169.076ZM478.869 171.481C477.439 171.481 476.07 171.148 474.762 170.482C473.48 169.791 472.431 168.768 471.617 167.411C470.803 166.03 470.396 164.328 470.396 162.305C470.396 160.258 470.803 158.543 471.617 157.162C472.431 155.756 473.48 154.708 474.762 154.017C476.07 153.302 477.439 152.944 478.869 152.944C480.3 152.944 481.657 153.302 482.939 154.017C484.247 154.708 485.307 155.756 486.121 157.162C486.96 158.543 487.379 160.258 487.379 162.305C487.379 164.328 486.96 166.03 486.121 167.411C485.307 168.768 484.247 169.791 482.939 170.482C481.657 171.148 480.3 171.481 478.869 171.481ZM478.869 169.816C480.473 169.816 481.706 169.187 482.569 167.929C483.433 166.646 483.864 164.772 483.864 162.305C483.864 159.814 483.433 157.914 482.569 156.607C481.706 155.3 480.473 154.646 478.869 154.646C477.266 154.646 476.033 155.3 475.169 156.607C474.331 157.914 473.911 159.814 473.911 162.305C473.911 164.772 474.331 166.646 475.169 167.929C476.033 169.187 477.266 169.816 478.869 169.816Z" fill="#0A0A0A"/>
</svg>
